<?xml version="1.0" encoding="UTF-8" standalone="no"?>
<svg
   width="466pt"
   height="458pt"
   viewBox="0 0 466 458"
   version="1.1"
   id="svg85"
   sodipodi:docname="Hebei Normal University logo.svg"
   inkscape:version="1.3 (0e150ed, 2023-07-21)"
   xmlns:inkscape="http://www.inkscape.org/namespaces/inkscape"
   xmlns:sodipodi="http://sodipodi.sourceforge.net/DTD/sodipodi-0.dtd"
   xmlns="http://www.w3.org/2000/svg"
   xmlns:svg="http://www.w3.org/2000/svg">
  <defs
     id="defs85" />
  <sodipodi:namedview
     id="namedview85"
     pagecolor="#c0daa2"
     bordercolor="#000000"
     borderopacity="0.25882353"
     inkscape:showpageshadow="2"
     inkscape:pageopacity="0.0"
     inkscape:pagecheckerboard="0"
     inkscape:deskcolor="#d1d1d1"
     inkscape:document-units="pt"
     inkscape:zoom="0.69869383"
     inkscape:cx="221.1269"
     inkscape:cy="312.01077"
     inkscape:window-width="1440"
     inkscape:window-height="773"
     inkscape:window-x="0"
     inkscape:window-y="25"
     inkscape:window-maximized="0"
     inkscape:current-layer="svg85" />
  <g
     id="g-20376aff"
     style="display:inline">
    <path
       fill="#20376a"
       opacity="1"
       d="m 218.31,20.44 c 15.26,-0.85 30.62,-0.61 45.75,1.7 33.43,4.84 65.6,18.04 92.83,38.02 26.37,19.28 48.17,44.79 62.97,73.92 12.55,24.48 20.1,51.49 22.14,78.92 2.66,34.55 -3.34,69.77 -17.56,101.39 -12.85,28.72 -32.29,54.46 -56.4,74.67 -31.2,26.38 -70.34,43.27 -110.98,47.68 -11.98,1.46 -24.07,1.49 -36.11,0.94 -44.27,-2.39 -87.54,-19.6 -121.49,-48.1 C 70.39,365.33 47.98,333.13 35.69,297.29 27.22,272.84 23.47,246.81 24.44,220.97 c 1.75,-52 23.92,-103 60.94,-139.58 34.97,-35.55 83.2,-57.55 132.93,-60.95 m 4.01,2.02 c -32.37,1.62 -64.32,11.13 -92.36,27.41 -28.7,16.57 -53.31,40.16 -71.12,68.11 -17.27,26.99 -28.06,58.08 -31.26,89.96 -4.28,40.84 4.04,82.9 23.59,119.01 9.98,18.47 22.72,35.46 37.82,50.06 29.8,29.3 68.76,49.13 109.99,55.98 31.81,5.31 64.89,3.22 95.7,-6.36 30.97,-9.56 59.56,-26.6 82.82,-49.16 23.09,-22.37 40.91,-50.16 51.45,-80.55 16.04,-45.82 15.18,-97.29 -2.46,-142.53 C 410.91,113.93 382.17,78.73 345.72,55.25 309.43,31.61 265.56,20 222.32,22.46 Z"
       id="path30" />
    <path
       fill="#20376a"
       opacity="1"
       d="m 218.32,28.47 c 35.89,-2.68 72.54,4.26 104.73,20.45 33.88,16.76 62.78,43.36 82.37,75.68 18.38,30.08 28.58,65.13 29.1,100.39 0.74,31.04 -5.94,62.23 -19.29,90.27 -18.7,39.49 -50.63,72.53 -89.5,92.47 -29.98,15.57 -63.98,23.26 -97.72,22.25 C 190.33,429.13 153,417.28 121.73,396.27 95.97,379.1 74.29,355.88 58.89,329.03 35.63,288.91 27.3,240.59 35.17,194.94 40.74,161.8 54.96,130.19 75.89,103.92 95.25,79.52 120.36,59.71 148.62,46.59 170.49,36.37 194.25,30.26 218.32,28.47 m 3.05,5.04 c -33.29,1.98 -66,12.7 -93.99,30.83 -25.6,16.5 -47.3,39.03 -62.76,65.27 -17.38,29.33 -26.83,63.3 -27.08,97.38 -0.43,33.47 7.98,67.01 24.18,96.31 15.83,28.82 39.08,53.52 66.85,71.12 25.93,16.52 55.82,26.74 86.43,29.58 22.07,1.99 44.5,0.45 66,-4.97 32.98,-8.21 63.72,-25.24 88.17,-48.86 20.3,-19.42 36.33,-43.28 46.62,-69.42 8.41,-21.22 12.93,-43.95 13.56,-66.75 0.76,-30.71 -5.73,-61.6 -19.03,-89.3 C 393.54,109.44 365.89,79.5 332.18,59.82 298.93,40.29 259.84,31.08 221.37,33.51 Z"
       id="path31" />
    <path
       fill="#20376a"
       opacity="1"
       d="m 192.06721,43.749776 c 0.16896,-0.987602 1.36555,-0.590945 1.54325,-0.476961 1.46,1.04 2.96954,1.727185 3.22954,3.757185 0.77,1.99 -0.07,4.04 -0.47,6 -2.36,0.66 -4.7,1.39 -7.05,2.07 -0.48789,-1.86786 0.0648,-4.356689 1.27543,-6.211622 1.47454,-2.259328 1.69301,-4.472429 1.47178,-5.138602 z"
       id="path32"
       sodipodi:nodetypes="cccccsc" />
    <path
       fill="#20376a"
       opacity="1"
       d="m 209.61,47.05 c 2.00018,-0.091 3.83485,-0.04834 4.27,0.75 0.59668,1.176985 -1.51,3.99 -2.85,5.66 0.22,1.21 0.45,2.42 0.69,3.63 1.53,-0.4 3.05,-0.8 4.58,-1.19 1.38938,-0.213659 1.59659,1.783171 1.56,4.13 -0.44,3.39 -3.1,5.86 -5.25,8.29 0.27,4 1.17,8.01 0.65,12.02 -0.43,-0.24 -1.3,-0.72 -1.73,-0.96 -1.6,-3.67 -1.68,-7.8 -2.31,-11.71 -1.4,0.79 -2.79,1.58 -4.21,2.33 -0.47,-0.41 -1.41,-1.22 -1.88,-1.63 -1.06,3.06 -2.55,6.02 -5.04,8.18 -0.32,-1.5 -2.07,-2.93 -1.08,-4.5 1.1,-1.97 -0.17,-4.01 0.08,-6.05 0.26,-2.08 -1.05,-3.89 -1.81,-5.72 0.63,5.92 0.25,11.86 0.48,17.79 -0.72,0.11 -2.16,0.31 -2.87,0.41 -2.06,-2.88 -2.39,-6.54 -3.41,-9.85 -1.02,-3.42 -0.97,-7.02 -0.11,-10.46 1.35,0.26 2.7,0.55 4.04,0.83 1.99,-2.14 4.07,-5.43 7.45,-4.87 1.64,1.32 -0.77,3.17 0.3,4.62 1.14,1.7 -0.14,3.69 -0.19,5.49 3.97,-2.28 4.95,-7.09 7.39,-10.65 -1.31,0.66 -2.62,1.32 -3.94,1.96 -1.3,-1.48 -2.07,-3.24 -1.93,-5.23 2.49,-0.83 4.56716,-2.027337 7.12,-3.27 m 2.32,12.49 c -0.47,1.42 0,1.88 1.39,1.39 0.47,-1.39 0.01,-1.86 -1.39,-1.39 m -5.29,0.43 c -0.51,1.4 -0.06,1.87 1.35,1.39 0.51,-1.4 0.06,-1.87 -1.35,-1.39 z"
       id="path33"
       sodipodi:nodetypes="cccccccccccccccccccccccccccccccccc" />
    <path
       fill="#20376a"
       opacity="1"
       d="m 293.19,47.18 c 1.47,-0.31 2.92,0.25 3.38,1.78 -1.01,2.73 -3.26,4.68 -5.11,6.82 2.42,-0.02 5.21,-0.46 6.34,2.3 -2.85,1.35 -5.94,0.98 -8.95,0.55 -0.95,1.01 -1.89,2.03 -2.83,3.04 -1.34579,0.584127 -0.66829,-1.908653 -1.3783,-2.320175 -1.28855,-0.746842 -3.27194,-0.516929 -4.78063,-1.019825 -0.48,0.61 -1.49776,1.882413 -2.06107,2.45 -0.62114,0.05076 -0.66093,-0.754305 -0.98823,-1.170863 -0.51079,-0.650118 0.33555,-1.356125 -0.0412,-2.173567 -0.63,-0.15 -2.68053,-0.94557 -3.32053,-1.08557 -0.09,-1.07 -0.17,-2.13 -0.24,-3.2 1.42,0.17 3.34795,1.192805 4.79795,1.162805 1.26,-0.95 1.87205,-2.782805 3.03205,-3.852805 0.7865,-0.149604 1.7462,0.75 1.72,1.13 -0.55,1.34 -1.11,2.67 -1.68,4 1.7,0.25 3.4,0.51 5.11,0.76 2,-3.26 3.81,-6.9 7,-9.17 z"
       id="path34"
       sodipodi:nodetypes="ccccccsccscccccccccc" />
    <path
       fill="#20376a"
       opacity="1"
       d="m 269.71,62.37 c 1.99,1.44 1.93,3.87 2,6.07 -1.33,0.35 -2.67,0.65 -4.02,0.9 -0.48,-2.55 0.94,-4.8 2.02,-6.97 z"
       id="path35" />
    <path
       fill="#20376a"
       opacity="1"
       d="m 283.37,63.54 c 1.44,-0.28 2.93,-0.47 4.41,-0.28 1.73,0.81 2.86,3.18 1.37,4.76 -2.22,1.91 -4.77,3.45 -6.61,5.78 -1.27,-0.31 -3.33,-0.41 -3.56,-2.02 -0.96,2.1 -1.81,4.25 -2.53,6.44 3.34,1.11 7.39,2.07 10.43,-0.31 1.89,-2.25 2.9,-5.1 4.6,-7.49 2.55,3.45 1.31,8.79 -1.52,11.65 -4.11,1.02 -8.47,1.06 -12.63,0.46 -2.3,-0.35 -3.69,-2.32 -4.84,-4.13 1.36,-4.73 3.92,-8.93 6.12,-13.28 1.57,-0.56 3.13,-1.2 4.76,-1.58 m -3.54,3.46 -0.34,0.79 0.38,0.81 0.87,0.36 0.85,-0.28 0.32,-0.79 -0.37,-0.82 -0.86,-0.37 z"
       id="path36" />
    <path
       fill="#20376a"
       opacity="1"
       d="m 265.3,72.29 c 0.25,-0.28 0.73,-0.85 0.98,-1.13 0.5,2.58 1.61,4.94 3.52,6.77 -0.68,0.94 -1.3,1.92 -2.1,2.75 -1.92,0.4 -4.9,0.57 -5.5,-1.85 -0.41,-2.63 1.55,-4.69 3.1,-6.54 z"
       id="path37" />
    <path
       fill="#20376a"
       opacity="1"
       d="m 133.07053,73.74926 0.82475,-0.441244 c 0.12934,-0.02634 0.2165,0.06365 0.2526,0.08962 1.14,1.364395 1.78212,2.822381 2.51212,4.382381 1.57407,-0.391435 3.16201,-0.796743 4.78116,-1.007959 0.32497,-0.04239 0.8218,-0.105399 0.90302,-0.01675 0.16334,0.130519 0.26255,0.671021 0.24054,0.97125 -0.11555,1.575846 -2.03819,2.266905 -2.87816,3.585657 1.37125,3.0725 1.5864,5.206054 1.06344,6.707799 0.49,2.01 1.93,3.58 3.15,5.19 0.96,-1.84 1.67,-3.86 3.01,-5.49 1.27,-0.65 2.74,-0.34 3.86,0.48 -0.07,1.94 -1.4,3.48 -2.04,5.24 -0.51,1.68 -0.66,3.45 -1.27,5.1 -0.6,0.84 -1.73,1.39 -2.67,0.75 -2.88,-1.49 -4.23,-4.59 -6.05,-7.09 -3.88728,-4.970942 -5.35295,-11.355311 -6.25425,-17.472748 -0.0693,-0.09958 0.051,-0.124581 0.0776,-0.189737 l 0.16591,-0.525395 m 4.26579,5.286755 c -0.30696,0.200746 -0.28102,0.39068 -0.33483,0.637419 0.0752,0.295715 0.20633,0.479619 0.37494,0.588546 0.22993,0.07444 0.45986,0.0811 0.68979,0.03876 0.22323,-0.188166 0.38776,-0.382201 0.37865,-0.593601 -0.0464,-0.247622 -0.12979,-0.479411 -0.33865,-0.657419 -0.29037,-0.147326 -0.50284,-0.191327 -0.7699,-0.01371 z"
       id="path38"
       sodipodi:nodetypes="ccccscscccccccccscccccccccc" />
    <path
       fill="#20376a"
       opacity="1"
       d="m 227.35,82.5 c 7.88,-0.24 15.8,-0.2 23.63,0.83 31.86,3.48 62.33,18.05 85.17,40.51 26.4,25.54 42.55,61.42 43.81,98.16 0.94,20.13 -2.41,40.47 -9.74,59.25 -8.78,22.49 -23.23,42.77 -41.69,58.33 -24.56,20.94 -56.27,33.29 -88.53,34.38 -26.59,1.17 -53.49,-5.22 -76.73,-18.21 -28.65,-15.87 -51.64,-41.69 -64.05,-72 C 86.64,253.34 84.89,218.63 94.17,187.08 102.82,157.36 121.31,130.64 146,111.99 169.29,94.2 198.08,83.8 227.35,82.5 m -6.05,8.96 c -24.2,2.22 -47.76,11.08 -67.43,25.36 -19.11,13.7 -34.52,32.44 -44.41,53.76 -13.2,28.31 -16.24,61.18 -8.47,91.43 7.55,30.22 25.92,57.54 50.88,76.16 23.46,17.67 52.74,27.54 82.13,27.4 35.87,0.35 71.45,-14.44 96.86,-39.7 22.03,-21.72 36.47,-51.04 39.87,-81.82 3.66,-30.7 -3.51,-62.57 -20.04,-88.71 -14.79,-23.62 -36.93,-42.58 -62.58,-53.5 -20.94,-8.93 -44.14,-12.6 -66.81,-10.38 z"
       id="path39" />
    <path
       fill="#20376a"
       opacity="1"
       d="m 355.23,85.36 c 1.73,-1.16 1.99,1.45 1.71,2.61 -0.76,2.44 -3.4,3.54 -5.17,5.14 2.14,0.76 4.38,1.1 6.58,1.65 0.44,0.95 2.45,2.34 -0.08,2.75 -2.71,-0.8 -5.33,-2.09 -8.17,-2.28 -6.5,2.68 -12.74,6.52 -19.86,7.3 -1.82,0.21 -3.23,-1.14 -4.22,-2.49 0.41,-1.09 0.97,-2.12 1.51,-3.16 5.01,-0.38 10.59,-0.58 14.67,-3.89 -0.2,-1.52 -0.54,-3.01 -0.83,-4.52 0.96,-0.99 1.92,-1.97 2.89,-2.94 0.91,1.61 1.84,3.23 2.77,4.83 2.66,-1.77 5.17,-3.89 8.2,-5 z"
       id="path40" />
    <path
       fill="#20376a"
       opacity="1"
       d="m 121.13,86.27 c 4.48,-0.89 6.83,3.67 8.97,6.72 1.6,3.07 5.46261,4.115875 7.15261,7.03587 0.0155,1.2089 -1.89545,1.75816 -0.99161,2.54489 1.30623,1.13699 1.2518,4.02881 0.919,5.52924 -0.37,0.43 -1.12,1.28 -1.49,1.7 -2.74,0.28 -5.40719,0.67557 -6.74719,-2.49443 -0.16664,-0.93725 -0.0174,-1.26008 1.13635,-2.14976 -2.01871,-0.97558 -6.91663,-6.708096 -9.15346,-9.601266 0.71655,-2.592676 2.14864,-1.514301 3.0643,-1.694544 -1.3,-2.29 -4.71,-4.81 -2.86,-7.59 m 5.84,11.2 c -0.0249,1.178749 0.67695,1.700574 1.65,2.04 0.96,-0.96 -0.5,-2.79 -1.65,-2.04 z"
       id="path41"
       sodipodi:nodetypes="cccscccccccccc" />
    <path
       fill="#20376a"
       opacity="1"
       d="m 343.23,102.25 c 0.63,-0.29 1.9,-0.86 2.53,-1.14 -1.34,4.14 -2.5,8.31 -3.22,12.6 -3.52,0.9 -7.29,-3.07 -6.3,-6.52 1.51,-2.53 4.53,-3.55 6.99,-4.94 z"
       id="path42" />
    <path
       fill="#20376a"
       opacity="1"
       d="m 85.45,118.42 c 0.46,-0.35 1.39,-1.05 1.85,-1.4 2.51,3.19 2.63,7.52 2.23,11.38 -0.09,2.05 -2.13,2.76 -3.71,3.44 -1.13,2.89 -1.71,5.95 -2.41,8.97 -1.47,0.3 -2.93,0.66 -4.43,0.67 -0.37,-0.61 -1.09,-1.82 -1.45,-2.43 2.3,-5.48 5.01,-10.82 6.89,-16.48 0.64,-1.28 -0.09,-3.22 1.03,-4.15 z"
       id="path43" />
    <path
       fill="#20376a"
       opacity="1"
       d="m 159.12,123.22 c 50.21,0.04 100.41,0.05 150.62,0 -0.04,5.41 -0.06,10.83 0.02,16.25 -7.34,-0.3 -14.78,0.67 -22.03,-0.68 -0.33,0.7 -1,2.1 -1.33,2.79 0.63,0.14 1.88,0.41 2.51,0.55 6.11,-0.59 12.26,-0.3 18.39,-0.36 -0.03,4.7 -0.03,9.39 -0.01,14.09 -6.45,-0.22 -12.95,0.44 -19.36,-0.5 -0.4,0.55 -1.22,1.67 -1.63,2.22 0.48,0.27 1.43,0.81 1.91,1.07 7.16,-0.32 14.35,-0.16 21.53,-0.22 -0.04,5.02 -0.03,10.03 -0.02,15.05 -7.49,-0.31 -15.07,0.67 -22.48,-0.73 -0.01,1.24 -0.27,2.57 0.51,3.66 6.06,-1.07 12.23,-0.63 18.35,-0.65 -6.53,5.44 -12.9,11.09 -19.67,16.22 0.28,0.41 0.86,1.21 1.14,1.61 7.38,-0.51 14.78,-0.27 22.18,-0.36 -0.05,4.79 -0.06,9.58 -0.01,14.37 -3.8,0.09 -7.78,-0.63 -11.37,0.92 -0.28,-0.24 -0.83,-0.72 -1.11,-0.96 -3,0.04 -6.06,0.18 -8.98,-0.67 -0.51,0.41 -0.99,0.84 -1.43,1.31 0.49,1.54 0.97,3.13 0.91,4.77 -0.05,4.9 0.44,9.9 -0.93,14.69 7.63,-0.46 15.27,-0.24 22.91,-0.32 -0.04,5.15 -0.06,10.3 0.01,15.45 l -2.48,0.32 c 0.01,5.36 0,10.71 0.01,16.07 -2.49,-0.07 -4.97,-0.19 -7.46,-0.34 0.01,-5.26 0,-10.53 0.01,-15.8 -0.56,-0.08 -1.69,-0.24 -2.26,-0.32 -0.01,5.39 -0.02,10.79 0.02,16.19 -2.48,-0.02 -4.96,-0.02 -7.44,0 0.01,-5.55 -0.04,-11.1 0.3,-16.64 -1.01,0.34 -2.73,-0.26 -3.25,0.89 0.53,6.02 1.43,12.36 -0.49,18.23 2.4,0.51 4.85,0.11 7.28,0.11 5.25,-0.07 10.5,0.02 15.76,-0.04 -0.06,4.94 -0.04,9.88 -0.03,14.82 -7.29,-0.18 -14.62,0.48 -21.86,-0.62 -1.14,0.97 -0.65,2.41 -0.55,3.68 3.38,-0.65 6.83,-0.77 10.26,-0.72 -0.01,4.96 -0.01,9.91 0.01,14.86 -3.28,0.02 -6.54,-0.16 -9.79,-0.53 -0.31,0.48 -0.94,1.46 -1.26,1.94 0.36,0.36 1.09,1.07 1.45,1.42 7.2,-1.08 14.5,-0.42 21.75,-0.61 -0.03,5.22 -0.04,10.43 0.01,15.64 -50.2,-0.01 -100.41,-0.02 -150.61,0.01 0.06,-62.71 0.06,-125.42 -0.01,-188.13 m 79.25,14.82 c -1.15,2.03 -1.91,4.26 -3.07,6.28 -2.86,1.35 -5.89,2.39 -8.36,4.44 0.93,0.76 1.86,1.52 2.8,2.27 1.01,-0.69 2.02,-1.39 3.04,-2.08 0.74,0.9 1.48,1.79 2.24,2.69 1.08,-1.44 2.07,-2.97 3.32,-4.27 2.2,-0.76 4.5,-1.17 6.71,-1.89 -0.1,-0.57 -0.29,-1.71 -0.38,-2.28 -1.68,-0.05 -3.34,0.25 -4.99,0.52 0.56,-2.09 0,-4.04 -1.31,-5.68 m -49.96,1.54 -0.93,0.11 c -0.81,2.58 -0.65,5.48 -1.86,7.9 -2.47,1.89 -5.53,2.72 -8.34,3.93 0.72,0.75 1.5,1.42 2.36,2 2,0.41 3.81,-0.88 5.64,-1.47 0.18,2.58 0.3,5.16 0.38,7.75 -3.28,3.71 -8.83,5.26 -10.6,10.21 l 2.44,0.96 c 1.76,-1.12 3.69,-1.96 5.42,-3.14 1.1,-1.72 1.56,-3.78 2.5,-5.6 0.17,3.1 0.44,6.23 0.07,9.32 -1.72,2.29 -4.82,-0.04 -7.04,-0.12 1.09,1.55 1.61,3.91 3.54,4.67 2.19,0.38 4.43,0.34 6.65,0.42 1.96,-4.06 1.51,-8.67 1.56,-13.04 2.35,2.39 4.44,5.09 7.18,7.07 1.07,0.04 2.16,0.01 3.24,-0.09 -0.42,-2.26 -0.74,-4.86 -2.67,-6.4 -2.46,-1.88 -5.45,-2.88 -8.22,-4.19 -0.05,-2.6 -0.23,-5.22 -1.14,-7.68 2.48,-2.96 6.4,-3.53 9.98,-4.21 -0.85,-0.94 -1.33,-2.34 -2.55,-2.86 -1.78,-0.07 -3.55,0.19 -5.31,0.34 -0.26,-2.02 -0.53,-4.05 -0.86,-6.06 -0.36,0.05 -1.08,0.13 -1.44,0.18 m 4.5,-0.79 c 1.38,3.08 3.86,6.89 7.79,5.9 -0.31,-1.67 -0.02,-3.78 -1.64,-4.85 -1.76,-1.36 -4.1,-0.95 -6.15,-1.05 m 28.27,5.27 c -1.77,3.51 -1.7,7.53 -1.79,11.35 -0.91,0.72 -1.82,1.43 -2.73,2.14 0.29,-1.72 0.92,-3.41 0.94,-5.17 -0.46,-1.17 -0.98,-2.31 -1.55,-3.42 -1.52,0.74 -3.29,1.48 -3.72,3.31 -1.36,2.99 -1.48,8.07 2.6,8.83 1.33,-0.86 2.53,-1.9 3.82,-2.82 0.27,5.7 -1.37,12.2 2.1,17.23 0.67,-0.26 2,-0.79 2.67,-1.05 0.04,-2.54 -0.66,-5.01 -0.9,-7.52 -0.42,-3.37 -0.06,-6.77 0.2,-10.14 1.69,-1.13 3.38,-2.24 5.15,-3.23 -0.77,2.2 -1.73,4.33 -2.34,6.58 3.72,0.99 7.55,-0.27 11.2,-1.02 -3.37,3.51 -8.61,3.52 -12.74,5.7 0.21,0.72 0.62,2.14 0.82,2.85 2.22,-0.35 4.37,-0.99 6.56,-1.48 -2.21,2.21 -4.77,4.03 -7.11,6.1 2.56,0.52 4.84,-0.65 6.94,-1.95 -0.14,2.62 -0.19,5.36 1.55,7.53 2.91,-1.62 4.38,-4.63 5.98,-7.38 3.04,1.38 5.63,3.83 8.97,4.46 -0.05,-0.65 -0.14,-1.95 -0.19,-2.6 -2.86,-3.69 -7.84,-5.11 -12.35,-5.08 0.57,1.2 1.15,2.4 1.75,3.59 -0.57,0.27 -1.69,0.81 -2.25,1.08 -0.04,-2.2 -0.06,-4.41 -0.11,-6.61 2.32,-1.72 5.23,-1.95 8,-2.27 -1.19,1.04 -2.41,2.05 -3.61,3.07 1.71,1 3.75,1.77 5.47,0.32 1.46,-0.92 0.12,-2.75 1.07,-3.9 0.35,-0.74 1.03,-2.21 1.38,-2.94 -1.88,0.02 -3.65,0.51 -5.33,1.3 -1.22,-0.85 -2.42,-1.73 -3.57,-2.65 1.62,-0.06 3.25,-0.09 4.89,-0.09 1.47,-2.4 2.88,-4.84 4.53,-7.13 -0.39,-0.49 -1.16,-1.48 -1.54,-1.97 -5.01,0.25 -9.52,2.6 -14.29,3.87 -0.16,1.81 -0.28,3.62 -0.34,5.44 -0.36,0.14 -1.07,0.42 -1.43,0.56 -0.01,-1.58 0.08,-3.16 -0.06,-4.73 -1.27,-1.25 -2.67,-2.34 -4.03,-3.48 -0.88,0.93 -1.76,1.85 -2.65,2.76 -0.04,-3.68 1.75,-7.98 -1.27,-10.99 l -0.69,1.55 m -23.85,8.25 c -1.25,0.63 -2.52,1.23 -3.78,1.84 -0.16,1.94 -0.2,3.89 -0.08,5.84 3,-0.35 5.14,-2.66 7.69,-4.05 -0.27,-1.95 -1.42,-4.86 -3.83,-3.63 m -19,6.14 c -2.44,0.55 -3.48,2.75 -4.05,4.97 1.32,-0.8 2.62,-1.64 3.91,-2.49 0.44,0.28 1.32,0.84 1.75,1.12 l 1.95,-2.19 c -0.22,-0.62 -0.49739,-2.40286 -0.87,-2.47 -0.27974,-0.0877 -2.02,0.79 -2.69,1.06 m 9.94,21.98 c -1.8,2.74 -2.49,5.98 -3.94,8.88 -2.13,1.53 -4.74,2.09 -7.26,2.6 0.21,0.72 0.61,2.16 0.82,2.88 1.89,-0.13 3.78,-0.35 5.66,-0.59 -0.22,6.7 -1.86,13.46 0.07,20.07 -3.08,1.59 -6.28,2.94 -9.58,4 0.2,0.58 0.62,1.72 0.82,2.29 2.63,0.09 5.75343,-1.21108 8.21343,-2.04108 -1.52,2.33 -5.36423,7.63247 -4.81343,7.78108 1.1205,0.33055 6.04,-2.12 7.78,-4.86 0.73799,-1.0753 -1.34,-2.24 -2,-3.35 2.87,-1.07 5.8,-1.98 8.78,-2.68 1.19,2.75 3.30484,8.58609 4.16,7.98 0.79915,0.15968 2.52,-3.77 1.76,-6 -1.55,-1.01 -3.28,-1.71 -4.92,-2.56 3.26,-0.48 6.55,-0.44 9.84,-0.62 -0.25,-0.61 -0.75,-1.83 -0.99,-2.44 -2.17,-0.94 -4.67,-0.4 -6.96,-0.61 -1.04,-6.31 0.34757,-17.654 -2.39275,-18.13824 -0.85048,-0.63427 -4.229,1.5415 -6.47725,1.89824 1.66,-4.97 7.55,-4.37 11.71,-4.89 -0.07,-1.22 -0.16,-2.45 -0.24,-3.67 -3.13,0.01 -6.21,0.58 -9.25,1.27 0.4,-1.51 0.99,-2.97 1.16,-4.53 -0.42,-1.23 -0.88,-2.44 -1.38,-3.63 l -0.57,0.96 m 45.98,5.93 c -3.45,0.85 -6.67,2.44 -9.53,4.53 0.24,0.6 0.73,1.79 0.98,2.38 1.92,0.16 3.85,0.3 5.78,0.46 -0.59,1.3 -1.07,2.66 -1.79,3.89 -3.51,1.74 -7.06,3.47 -10.08,6.01 1.06,0.71 2.12,1.41 3.19,2.11 1.42,-1.14 2.84,-2.27 4.35,-3.29 -1.44,2.74 -2.91,5.48 -4.7,8.01 -1.56,2.21 -3.85,3.69 -5.8,5.51 l 0.27,1.25 c 3.23,1.09 4.76,-2.81 7.42,-3.88 3.45,-1.64 4.21,-5.67 5.68,-8.83 0.36,0.68 1.08,2.03 1.44,2.71 1.49,0.54 3.13,0.87 4.29,2.04 2.45,2.26 5.39,3.85 8.39,5.24 2.15,-1.67 5.05,-0.9 7.3,-2.44 -2.81,-1.13 -5.98,-1.41 -8.64,-2.83 -3.36,-3.19 -7.74,-4.85 -11.85,-6.83 3.03,-3.43 8.01,-2.87 12.07,-4.02 -0.76,-0.99 -1,-2.73 -2.41,-2.95 -1.92,0.02 -3.76,0.72 -5.61,1.14 -0.87,-1.16 -1.75,-2.3 -2.64,-3.44 2.12,-1.25 4.24,-2.53 6.28,-3.92 -0.51,-1.2 -1.03,-2.4 -1.54,-3.6 -0.72,0.19 -2.14,0.56 -2.85,0.75 m -0.89,40.1 c -6.18,0.68 -11.39,4.19 -16.22,7.83 1.56,0.81 3.11,1.72 4.84,2.12 1.78,-0.15 3.09,-1.56 4.58,-2.41 0.38,4.99 0.07,10 -0.07,15 0,2.77 -0.21,5.76 1.29,8.23 0.75,1.28 2.35,1.34 3.61,1.78 0.58,-4.81 -0.11,-9.64 -0.56,-14.43 2.89,2.03 7.49445,7.67174 8.67,6.07 0.9306,0.18096 -0.05,-5.96 -2.22,-7.93 -1.98,-1.32 -4.39,-0.43 -6.54,-0.29 -0.01,-3.48 0.7,-7.46 -2.33,-9.98 4.43,-2.19 9.38,-2.82 14.21,-1.77 -0.05,-0.99 -0.11,-1.98 -0.16,-2.96 -2.92,-1.02 -5.99,-1.83 -9.1,-1.26 m -50.1,4.95 c -2.32,1.63 -3.51,4.45 -5.26,6.64 -1.14416,1.31541 -1.186,4.5589 -0.48,4.6 0.4585,0.48657 6.03,-4.75 8.4,-7.77 1.3,-1.24 2.41327,-4.02772 0.64,-4.68 -0.62463,-0.50457 -2.47,0.91 -3.3,1.21 m 5.08,4.99 c -4.58,0.65 -11.38303,8.32654 -10,8.24 -0.0838,0.79834 5.69,-2.19 8.4,-3.59 -1.24,1.43 -2.64,2.74 -3.01,4.68 -2.89,1.33 -5.68,2.84 -8.46,4.38 0.16,0.64 0.47,1.91 0.63,2.54 2.06,-0.1 4.08,-0.42 6.11,-0.77 -2.48,1.78 -3.52,4.55 -4.67,7.25 4.69,-0.47 7.26,-4.83 9.65,-8.35 1.12,2.68 2.35,6.66 6.05,6.08 0.5,-1.73 0.71,-3.55 0.51,-5.34 -2.23,-2.37 -5.45,-1.62 -8.27,-1.18 2.48,-2.02 5.56,-2.99 8.58,-3.89 0.73,2.02 1.23,4.14 2.17,6.09 0.68,0.22 2.05,0.67 2.73,0.9 -0.31,-3.05 -0.81,-6.08 -1.26,-9.11 2.53,-0.97 4.97,-2.16 7.49,-3.15 -0.9,2.58 -2.14,5.01 -3.13,7.56 -0.82,0.29 -2.48,0.89 -3.3,1.18 1.35,0.9 2.53,2.87 4.43,2.38 2.43,-0.17 4.44,-1.67 6.39,-2.98 -0.53,-0.5 -1.59,-1.51 -2.13,-2.02 0.95,-1.44 1.99,-2.83 2.77,-4.37 -1.05,-2.59 -3.64,-4.15 -6.03,-5.33 -2.22,0.22 -3.92,1.91 -5.78,2.99 -0.59,-0.73 -1.79,-2.19 -2.39,-2.92 -1.03,1.76 -1.83,3.63 -2.47,5.56 -1.8,0.18 -3.6,0.37 -5.39,0.61 -0.4,-0.86 -0.81,-1.72 -1.22,-2.57 0.93,0.04 2.78,0.12 3.7,0.16 0.66,-1.09 2.81,-1.89 1.95,-3.41 -0.16,-2 -2.61,-1.93 -4.05,-1.62 z"
       id="path44"
       sodipodi:nodetypes="ccccccccccccccccccccccccccccccccccccccccccccccccccccccccccccccccccccccccccccccccccccccccccccccccccccccccccccccccccccccccccccccccccccccccccccccccccccccccccccccccccccccccccccccccccccccccccccccccccccccccccccccccccccccccccccccccccccccccccccccccccccccccccccccccc" />
    <path
       fill="#20376a"
       opacity="1"
       d="m 91.36,129.36 c 0.41,-0.12 1.23,-0.36 1.64,-0.48 4.76,1.45 8.32,5.18 12.67,7.44 1.92,0.88 3.13,2.58 3.92,4.49 -2.57,3.67 -6.06,6.66 -10.25,8.3 1.4,-3.16 3.07,-6.19 4.65,-9.26 -4.31,-3.83 -10.55,-5.12 -13.87,-10.08 z"
       id="path45" />
    <path
       fill="#20376a"
       opacity="1"
       d="m 392.37,130.51 c 2.5,-2.08 5.76,-0.25 8.43,0.47 -1.79,3.2 -6.32,4.54 -9.51,2.75 -0.18,-1.15 -0.06,-2.58 1.08,-3.22 z"
       id="path46" />
    <path
       fill="#20376a"
       opacity="1"
       d="m 89.23,134.09 c 1.37,-0.52 2.93,-0.47 3.94,0.74 2.47,2.11 3.87,5.12 4.85,8.15 -1.09,1.44 -2.03,2.99 -2.89,4.58 -1,0.16 -2.01,0.32 -3.01,0.48 4.12,3.04 5.8,8.18 5.25,13.17 -1.75,0.1 -3.59,0.57 -5.29,-0.08 -2.82,-1.02 -4.68,-3.49 -6.58,-5.66 -2.99,0.03 -5.8,1.5 -8.82,1 0.5,-2.94 1.49,-5.9 3.7,-8.01 1.5,-0.76 3.33,-0.42 4.79,0.29 1.21,2.98 2.55,5.97 5.28,7.88 0.2,-4.3 -1.46,-8.39 -3.99,-11.8 3.26,-0.32 -0.75,-3.68 1.26,-5.08 1.62,-1.46 0.96,-3.66 1,-5.55 l 0.51,-0.11 m 2.36,6.86 c -0.46,1.39 0,1.87 1.39,1.42 0.47,-1.41 0.01,-1.88 -1.39,-1.42 z"
       id="path47" />
    <path
       fill="#20376a"
       opacity="1"
       d="m 376.42,134.57 c 4.48,-0.22 9.01,0.27 13.1,2.22 -0.47,0.84 -0.92,1.68 -1.37,2.52 2.8,1.87 6.42,3.89 6.72,7.64 0.22,2.19 -0.15,5.64 -2.94,5.91 -2.08,0.08 -5.19,-1.35 -4.97,-3.75 1.55,-0.29 3.09,-0.21 4.65,0.26 -0.18,-1.36 0.22,-2.98 -0.81,-4.08 -2.38,-3.16 -6.42,-4.12 -10.07,-4.95 -3.24,-0.69 -6.39,-1.78 -9.3,-3.36 1.64,-0.85 3.23,-1.84 4.99,-2.41 z"
       id="path48" />
    <path
       fill="#20376a"
       opacity="1"
       d="m 398.33,135.43 c 0.59,-0.06 1.76,-0.17 2.34,-0.23 0.33,2.04 -0.45,4.4 1.12,6.09 2.1,2.63 -0.33,6.2 -2.91,7.52 -2.27,-1.39 -2.96,-3.78 -2.71,-6.33 -0.46,-0.46 -1.37,-1.38 -1.82,-1.84 1,-1.88 1.61,-4.63 3.98,-5.21 z"
       id="path49" />
    <path
       fill="#20376a"
       opacity="1"
       d="m 72.37,141.47 c 1.89,-0.43 4.46,-0.25 5.36,1.77 0.53,2 0.18,4.68 -1.95,5.59 -2.98,1.48 -6.46,0.76 -9.65,0.64 0.79,-3.44 2.17,-7.47 6.24,-8 z"
       id="path50" />
    <path
       fill="#20376a"
       opacity="1"
       d="m 368.23,142.32 c 1.92,1.35 3.13,3.35 4.12,5.44 2.66,-0.46 5.37,-0.3 8.04,0.03 -1.77,-1.06 -3.53,-2.16 -5.19,-3.38 2.66,-2.12 6.46,-1.32 9.19,0.24 1.83,0.99 1.74,3.36 1.22,5.08 -2.98,2.88 -7.39,1.71 -11.09,2.29 1.96,2.04 4.42,3.72 5.3,6.56 -2.66,0.47 -5.2,-0.24 -7.13,-2.14 -4.61,1.49 -9.73,-1.23 -11.36,-5.72 -0.71,-1.64 0.76,-2.88 1.54,-4.13 1.23,2.87 3.29,6.49 7.04,5.61 -1.5,-3.1 -2.15,-6.43 -1.68,-9.88 z"
       id="path51" />
    <path
       fill="#20376a"
       opacity="1"
       d="m 240.01,152.41 c 2.62,-1.66 2.2,3.52 -0.18,2.15 l -0.41,-0.66 c 0.15,-0.37 0.45,-1.12 0.59,-1.49 z"
       id="path52" />
    <path
       fill="#20376a"
       opacity="1"
       d="m 235.34,154.02 c 2.74,0.21 -0.28,4.65 -1.26,1.92 0.13,-0.4 0.4,-1.19 0.53,-1.59 z"
       id="path53" />
    <path
       fill="#20376a"
       opacity="1"
       d="m 309.14,176.14 0.57,-0.5 c -0.01,5.08 -0.01,10.16 0.02,15.25 -5.99,-0.06 -11.97,-0.05 -17.96,0 5.76,-4.95 11.65,-9.75 17.37,-14.75 z"
       id="path54" />
    <path
       fill="#20376a"
       opacity="1"
       d="m 186.76,197.14 c 1.8,0.51 3.6,1 5.44,1.41 0.23,3.26 0.36,6.52 0.49,9.79 -2.26,-1.2 -4.49,0 -6.72,0.51 1.93937,-1.20032 5.82106,-1.43006 5.74,-3.55 l -0.57336,-1.28327 c -0.7699,-0.31533 -3.58998,0.34901 -4.32887,0.82869 -0.32931,0.21378 0.15212,-0.71105 0.0909,-0.93216 1.28,-0.64 3.00131,-1.71326 4.27131,-2.36326 -0.34,-0.93 -0.67,-1.85 -1.01,-2.76 -1.11,0.29 -2.21,0.58 -3.31,0.87 -0.03,-0.63 -0.07,-1.89 -0.09,-2.52 z"
       id="path55"
       sodipodi:nodetypes="ccccccsccccc" />
    <path
       fill="#20376a"
       opacity="1"
       d="m 191.66,210.84 c 0.36,-0.07 1.09,-0.21 1.45,-0.28 -2.1,1.85 -5.01,3.46 -7.78,2.01 2.06,-0.73 4.19,-1.28 6.33,-1.73 z"
       id="path56" />
    <path
       fill="#20376a"
       opacity="1"
       d="m 290.16,209.69 c 2.47,0 4.93,0.01 7.4,0.01 0.01,5 -0.01,10 0.03,15.01 -2.48,-0.01 -4.96,-0.01 -7.44,0.01 0.04,-5.01 0.03,-10.02 0.01,-15.03 z"
       id="path57" />
    <path
       fill="#20376a"
       opacity="1"
       d="m 299.83,209.71 c 2.49,-0.01 4.97,-0.02 7.46,-0.02 -0.02,5.01 -0.03,10.02 0.01,15.03 -2.5,-0.02 -4.99,-0.03 -7.48,-0.03 0.01,-5 0,-9.99 0.01,-14.98 z"
       id="path58" />
    <path
       fill="#20376a"
       opacity="1"
       d="m 55.12,221.11 c 7.36,0.08 14.72,0.12 22.07,0.14 0.01,0.74 0.01,2.23 0.01,2.98 -3.11,-0.09 -6.23,-0.1 -9.35,-0.09 -0.07,2.46 0.04549,4.93 -0.01451,7.39 3.23,0.12 6.254512,0.17 9.484512,0.18 -0.14,0.72 -0.02902,2.2382 -0.159024,2.9582 -7.37,-0.05 -14.73,-0.2382 -22.09,-0.2782 0.13,-0.76 0.009,-2.29 0.139024,-3.05 3.43,0.15 6.85,0.24 10.28,0.23 -0.02,-2.58 -0.03,-5.16 -0.07,-7.74 -3.45,0.01 -6.91,0.01 -10.36,0.04 0.01,-0.69 0.05,-2.07 0.06,-2.76 z"
       id="path59"
       sodipodi:nodetypes="ccccccccccccc" />
    <path
       fill="#20376a"
       opacity="1"
       d="m 394.01,220.83 c 3.29,1.35 6.47,2.94 9.67,4.5 3.9,2.26 8.55,1.12 12.82,1.14 0.01,1.02 0.02,2.05 0.04,3.08 -3.2,0 -6.4,-0.19 -9.58,0.07 -4.31,1.7 -8.3,4.13 -12.46,6.16 -0.03,-1.06 -0.06,-2.11 -0.08,-3.16 3.13,-1.5 6.27,-2.97 9.38,-4.51 -3.07,-1.41 -6.37,-2.41 -9.19,-4.3 -0.15,-0.74 -0.45,-2.24 -0.6,-2.98 z"
       id="path60" />
    <path
       fill="#20376a"
       opacity="1"
       d="m 70.29,245.45 c 2.44,-0.31 4.87,-0.68 7.3,-1.03 0.67,4.21 1.07,8.45 1.7,12.66 -0.6,0.05 -1.82,0.16 -2.42,0.22 -0.37,-3.25 -0.76,-6.5 -1.27,-9.73 -2.34,0.38 -4.69,0.76 -7.04,1.08 0.5,2.93 0.93,5.88 1.28,8.84 -0.59,0.06 -1.76,0.19 -2.35,0.25 -0.38,-2.92 -0.82,-5.83 -1.21,-8.74 -2.63,0.29 -5.26,0.59 -7.9,0.85 0.43,3.42 0.96,6.82 1.41,10.24 -0.58,0.14 -1.72,0.42 -2.29,0.56 -0.7,-4.4 -1.18,-8.83 -1.9,-13.22 4.89,-0.75 9.8,-1.32 14.69,-1.98 z"
       id="path61" />
    <path
       fill="#20376a"
       opacity="1"
       d="m 393.84,244.54 c 0.62,0.05 1.87,0.14 2.5,0.19 -0.29,1.77 -0.56,3.56 -0.8,5.34 6.39271,0.98976 13.61306,2.03141 20.02118,2.83976 0.22,0.71 -0.34118,1.78024 -0.12118,2.49024 -6.72,-0.79 -13.44,-1.64 -20.12,-2.65 -0.3,1.72 -0.59,3.45 -0.85,5.18 -0.57,-0.08 -1.71,-0.25 -2.29,-0.34 0.49,-4.36 1.22,-8.68 1.66,-13.05 z"
       id="path62"
       sodipodi:nodetypes="ccccccccc" />
    <path
       fill="#20376a"
       opacity="1"
       d="m 78.29,267.42 c 0.73,-0.22 2.19,-0.65 2.92,-0.87 0.78,2.81 1.74,5.59 2.21,8.48 0.55,3.2 -2.41,5.88 -5.41,6.2 -1.513748,0.24312 -2.785204,-0.39679 -4.01,-1.15 -1.14,3.67 -5.46,5.58 -8.91,3.94 -3.71,-2.53 -3.85,-7.5 -5.21,-11.39 6.12,-1.79 12.29,-3.43 18.41,-5.21 m 0.09,3.05 c -1.8,0.46 -3.6,0.96 -5.4,1.44 0.77,2.16 1.04,4.77 3,6.25 1.88,0.63 4.21,-0.26 4.92,-2.18 0,-2.01 -0.62,-3.94 -1.08,-5.87 l -1.44,0.36 m -10.13,2.82 c -1.79,0.5 -3.57,1.01 -5.35,1.51 0.81,2.19 1.16,4.82 3.12,6.34 2.07,0.83 4.97,-0.08 5.73,-2.3 0.27,-2.13 -0.43,-4.23 -0.72,-6.31 -0.69,0.19 -2.09,0.57 -2.78,0.76 z"
       id="path63"
       sodipodi:nodetypes="cccccccccccccccccccc" />
    <path
       fill="#20376a"
       opacity="1"
       d="m 388.76,271.96 c 7.08,2 14.15,4.04 21.25,6 -0.15,0.72 -0.46,2.17 -0.62,2.9 -7.09,-2.04 -14.19,-4.05 -21.3,-6.02 0.21,-0.96 0.44,-1.93 0.67,-2.88 z"
       id="path64" />
    <path
       fill="#20376a"
       opacity="1"
       d="m 300.19,278.53 c 3.18,0.01 6.37,0.01 9.55,0 -0.04,4.92 -0.05,9.84 0.01,14.76 -3.19,0 -6.38,0 -9.57,0.01 0.07,-4.92 0.06,-9.85 0.01,-14.77 z"
       id="path65" />
    <path
       fill="#20376a"
       opacity="1"
       d="m 87.27,289.16 0.94,-0.43 c 1.69,3.87 3.39,7.72 5.2,11.54 -0.58,0.25 -1.73,0.77 -2.31,1.02 -1.27,-2.98 -2.58,-5.95 -3.89,-8.91 -2.13,0.98 -4.27,1.93 -6.41,2.87 1.19,2.71 2.4,5.42 3.67,8.11 -0.58,0.26 -1.74,0.78 -2.32,1.04 -1.16,-2.74 -2.35,-5.47 -3.61,-8.17 -2.41,1.1 -4.82,2.19 -7.23,3.3 1.49,3.15 2.9,6.33 4.29,9.52 -0.58,0.18 -1.74,0.54 -2.33,0.72 -1.76,-4 -3.51,-8.01 -5.35,-11.98 6.44,-2.9 12.92,-5.73 19.35,-8.63 z"
       id="path66" />
    <path
       fill="#20376a"
       opacity="1"
       d="m 383.3,291.4 c 2.02,-1.13 4.2557,-0.58259 6.2857,-0.0526 -0.61109,1.96623 -0.25208,0.96724 -0.86153,2.38866 -8.68394,-2.81065 -6.86067,9.10899 -2.73417,6.76393 2.78,-1.72 4.81,-4.53 7.91,-5.74 2.77,-1.08 6,0.51 7.38,3.02 1.67,4.09 -0.7,9.69 -5.25,10.53 -1.57,-0.07 -3.07,-0.51 -4.58,-0.81 0.28,-0.6 0.84,-1.8 1.12,-2.39 2.07,0.26 4.68,0.67 5.94,-1.48 2.33,-2.38 0.05,-6.82 -3.22,-6.13 -3.59,1.13 -5.55,5.08 -9.28,5.94 -3.91,0.58 -7.25,-3.83 -6.08,-7.48 0.52,-1.83 1.5,-3.8 3.37,-4.56 z"
       id="path67"
       sodipodi:nodetypes="ccccccccccccccc" />
    <path
       fill="#20376a"
       opacity="1"
       d="m 374.28,311.32 c 2.26,-0.41 4.5,0.77 6.08,2.32 1.60162,1.4087 1.74368,3.27506 1.41,5.66 3.84287,0.49289 7.04256,0.5523 10.78685,1.10085 -0.54515,0.72429 -0.99313,1.33628 -1.89685,2.40915 -3.31855,-0.3615 -6.65569,-0.72431 -10.23,-1.08 -0.71,0.98 -1.4,1.96 -2.09,2.95 2.77,1.73 5.53,3.47 8.29,5.23 -0.42,0.62 -1.25,1.85 -1.67,2.47 -6.22,-4.03 -12.53,-7.93 -18.76,-11.95 2.42,-3.17 3.9,-7.85 8.08,-9.11 m 0.01,3.04 c -2.2,0.68 -3.14,3.17 -4.57,4.8 2.21,1.44 4.44,2.87 6.66,4.32 1.06,-1.79 2.98677,-3.42492 2.67108,-5.5 0.32046,-2.29 -2.41108,-4.21 -4.76108,-3.62 z"
       id="path68"
       sodipodi:nodetypes="cccccccccccccccc" />
    <path
       fill="#20376a"
       opacity="1"
       d="m 99.29,314.23 c 0.4,-0.24 1.18,-0.72 1.58,-0.96 0.32,0.66 0.98,1.98 1.31,2.64 -6.23,3.87 -12.44,7.76 -18.58,11.76 -0.57,-0.84 -1.14,-1.68 -1.71,-2.51 5.83,-3.6 11.57,-7.33 17.4,-10.93 z"
       id="path69" />
    <path
       fill="#20376a"
       opacity="1"
       d="m 158.85197,318.69505 c 0.68,-0.35 3.71429,-3.9435 5.44607,-5.16285 1.01278,-0.62469 0.87187,0.68919 0.87167,1.03159 -0.004,5.78064 0.11351,11.04858 -0.16968,16.81621 -0.57,-0.02 -1.7,-0.07 -2.27,-0.1 0.04,-4.51 -0.03,-9.02 0.12,-13.52 -1.34,1.37 -2.69,2.74 -4.14,4.01 -0.0692,-0.49365 -0.38508,-0.58432 0.14197,-3.07495 z"
       id="path70"
       sodipodi:nodetypes="ccscccccc" />
    <path
       fill="#20376a"
       opacity="1"
       d="m 170.56711,314.27367 c 0.50429,-0.54396 1.06236,-0.65397 1.82904,-0.67532 2.08956,-0.0582 3.77065,-0.0657 5.46203,-0.008 2.45,-0.25 3.80182,2 3.68182,4.42 0.01,3.62 0.3306,7.93279 -0.17799,11.34075 -1.04777,1.66967 -1.90839,1.90385 -3.19569,1.91497 -1.73629,0.015 -3.59539,0.0229 -5.24633,-0.006 -1.35848,-0.0651 -3.42826,-0.80925 -3.59984,-2.27039 -0.16326,-1.39021 -0.0915,-2.49186 -0.0704,-3.93429 0.007,-0.48148 1.72671,-0.23855 2.46037,-0.2026 0.15873,1.11794 0.0131,1.64483 0.3033,3.14282 2.18379,1.34436 4.11667,0.73201 6.57667,0.58201 0.26846,0.053 0.79828,-0.41252 0.68356,-0.79328 -0.0108,-0.036 0.004,-0.0755 0.005,-0.11412 0.0176,-1.18359 0.28829,-2.37194 -0.0231,-3.16428 -2.64,0.07 -4.95516,0.47413 -7.55516,-0.19587 -0.89143,-0.46773 -2.49083,-1.03252 -2.47943,-1.91575 0.0208,-1.61365 -0.0289,-3.72342 -0.0671,-5.63728 -0.0121,-0.60744 0.24566,-1.41103 0.66249,-1.73216 m 2.79646,1.26045 c -0.65292,0.15433 -0.98194,0.82423 -1.17624,1.22088 -0.09,1.7 0.0262,1.66533 0.0561,3.37533 0.005,0.49446 0.66469,0.85259 1.10589,0.85507 2.37121,0.0133 4.53554,0.10231 6.80175,-0.0865 0.01,-1.7 -0.032,-2.59783 -0.082,-4.28783 -0.0989,-0.36486 -0.61717,-0.97236 -1.23862,-0.97333 -1.84895,-0.003 -3.19773,-0.24107 -4.81086,-0.15281 z"
       id="path71"
       sodipodi:nodetypes="cscccscsscccssccssccccsccscc" />
    <path
       fill="#20376a"
       opacity="1"
       d="m 183.53996,314.36509 c 0.90499,-0.68233 1.00591,-0.8574 1.95531,-0.85734 1.43029,1e-4 3.90871,-0.01 5.98712,-0.0181 2.00118,0.0488 3.25171,1.76252 3.2677,3.04167 -0.0171,3.72692 -0.0184,6.68312 -9e-5,10.43866 0.0631,2.58277 -1.17452,4.4323 -3.99928,4.39 -2.18826,-0.0217 -1.95364,-0.0254 -5.06921,-0.0104 -2.34532,-0.74985 -3.09088,-1.66348 -3.33738,-4.09062 -0.0134,-2.74259 -0.0189,-7.87607 -0.0155,-10.60654 6e-5,-0.0513 0.43383,-1.37142 0.8999,-1.98371 m 2.9719,1.34968 c -1.79374,-0.14946 -1.41916,1.49417 -1.52588,1.94521 -0.002,2.4161 0.0427,6.00407 0.0865,8.13944 0.0577,2.81013 0.41881,2.35352 1.49838,2.47209 1.96536,0.0806 2.56112,0.0746 4.46583,0.0403 0.65382,-0.0118 1.4305,-0.54923 1.51427,-1.01445 0.0162,-3.98 0.0674,-5.85974 0.0231,-9.96254 -0.0851,-0.67532 0.3285,-1.42332 -1.09961,-1.6075 z"
       id="path72"
       sodipodi:nodetypes="csccccccscccscscccc" />
    <path
       fill="#20376a"
       opacity="1"
       d="m 204.31056,313.66865 c 0.37578,0.007 3.29489,1.70688 3.28075,3.53783 -0.0104,1.33942 0.0781,2.57641 0.0377,4.35555 -0.015,1.58995 -1.57414,3.29643 -2.719,3.36797 -2.22757,0.0851 -3.23756,0.014 -5.34756,0.0567 -1.70716,0.0767 -1.60479,2.30895 -1.62707,3.6566 3.48,0.0589 6.0782,0.0288 9.5782,0.0188 l -0.0436,2.69786 c -4.03,-0.05 -8.07,-0.03 -12.11,-0.03 0.1,-3.26754 -0.20356,-7.86757 3.0286,-8.72174 1.60095,-0.32746 4.00617,-0.12541 5.49296,-0.13681 0.97626,-0.007 1.27944,-0.82063 1.2773,-1.47812 0.0195,-1.43682 -0.0232,-1.93825 -0.0411,-3.59125 -0.008,-0.75241 -1.1834,-1.56722 -1.65921,-1.59485 -1.73746,0.0213 -1.98533,-0.0242 -3.79011,-0.008 -0.0617,5.6e-4 -0.95075,0.37916 -0.99329,0.42406 -0.45577,0.48112 -0.77948,1.00928 -0.79706,1.32818 -0.004,0.0736 -0.0158,0.0642 -0.003,0.22163 0.0192,1.33249 0.018,1.76229 0.031,3.30425 0.004,0.4831 -1.48242,0.46623 -2.50592,0.21191 -0.0259,-1.77051 -0.0186,-2.20405 -0.0166,-3.86615 1.8e-4,-0.14566 0.0451,-0.0448 0.009,-0.18213 -0.2074,-0.78862 1.9721,-3.7561 3.77475,-3.61217 0.10004,0.008 0.16353,0.0117 0.28002,-10e-5 z"
       id="path73"
       sodipodi:nodetypes="csccccccccscscssscscssscc" />
    <path
       fill="#20376a"
       opacity="1"
       d="m 208.08,313.61 c 33.02,0.07 66.04,-0.1 99.06,0.09 -32.91,14.46 -66.06,28.37 -99.03,42.71 -0.04,-14.27 0.18,-28.53 -0.03,-42.8 z"
       id="path74" />
    <path
       fill="#20376a"
       opacity="1"
       d="m 359.43,329.32 0.75,-0.89 c 0.47,0.39 1.41,1.16 1.89,1.55 -2.08,2.48 -4.13,4.98 -6.21,7.46 1.8,1.48 3.59,2.99 5.36,4.51 2.09687,-2.49844 3.78469,-4.34127 6.41469,-7.01844 0.26,0.45 1.15436,1.02251 1.41436,1.46251 -1.91,2.2 -4.04905,4.76593 -5.93905,6.97593 2.01,1.75 4.03,3.47 6.03,5.22 2.31,-2.83 4.63,-5.65 7.05,-8.38 0.27,0.55 1.31967,1.03502 1.59967,1.58502 -2.51,3.47 -5.94967,7.22498 -8.63967,10.55498 -5.67,-4.76 -11.39,-9.48 -17.1,-14.2 2.52,-2.89 4.92,-5.88 7.38,-8.83 z"
       id="path75"
       sodipodi:nodetypes="cccccccccccccc" />
    <path
       fill="#20376a"
       opacity="1"
       d="m 125.4,345.4 c 0.88,-1.79 2.04,1.11 3.05,1.44 -1.8,5.5 -3.6,11 -5.17,16.58 3.66,-3.84 7.07,-7.91 10.64,-11.83 0.71,0.7 1.42,1.41 2.13,2.12 -4.99,5.39 -9.77,10.99 -14.69,16.46 -0.8,-0.68 -1.6,-1.36 -2.4,-2.04 1.7,-5.54 3.51,-11.05 5.14,-16.61 -3.65,3.79 -7.11,7.76 -10.52,11.76 -0.78,-0.66 -1.56,-1.32 -2.34,-1.98 4.78,-5.25 9.45,-10.59 14.16,-15.9 z"
       id="path76" />
    <path
       fill="#20376a"
       opacity="1"
       d="m 345.2,344.97 0.85,-0.71 c 3.23,7.1 6.66,14.11 9.9,21.2 -0.5,0.43 -1.51,1.3 -2.02,1.73 -6.53,-4.21 -13.08,-8.41 -19.65,-12.55 0.76,-0.7 1.54,-1.4 2.31,-2.09 4.98,3.27 9.87,6.66 14.95,9.78 -2.55,-5.4 -5.26,-10.72 -7.84,-16.1 0.37,-0.32 1.13,-0.94 1.5,-1.26 z"
       id="path77" />
    <path
       fill="#20376a"
       opacity="1"
       d="m 143.21,362.24 c 3.94,-2.04 9.34,1.32 9.25,5.76 -0.08,3.76 -2.34,7.05 -4.44,10.02 -1.79,2.18 -3.92,4.78 -7,4.83 -3.32,0.35 -6.8,-2.39 -6.82,-5.81 -0.3,-3.23 1.36,-6.18 3.02,-8.81 1.59,-2.33 3.4,-4.72 5.99,-5.99 m 2.18,2.2 c -4.73,2.56 -8.04779,7.86939 -8.46804,12.88887 0.23685,1.56924 0.86322,2.33475 2.05804,2.91113 3.01602,0.48279 4.82,-1.94 6.34,-3.9 1.75,-2.57 3.72,-5.23 4.27,-8.35 0.32,-2.27 -2,-4.33 -4.2,-3.55 z"
       id="path78"
       sodipodi:nodetypes="ccccccccccccc" />
    <path
       fill="#20376a"
       opacity="1"
       d="m 321.42,363.52 c 0.43,-0.3 1.29,-0.9 1.73,-1.2 4.04,6.22 8.03,12.47 12.15,18.65 -0.61,0.43 -1.82,1.3 -2.42,1.73 -4.09,-6.21 -8.06,-12.5 -12.19,-18.68 z"
       id="path79" />
    <path
       fill="#20376a"
       opacity="1"
       d="m 162.91435,371.59608 c 2.99,1.49 6.34,2.48 8.86,4.75 2.73,2.51 1.46,6.87 -0.97,9.08 -1.30084,1.00323 -2.72272,1.3369 -4.58861,1.35506 0.14,3.54 0.0916,7.53786 0.16162,11.08786 -0.941,-0.39799 -1.80602,-0.89096 -2.81301,-1.40292 -0.12,-3.67 -0.10816,-7.11118 -0.14816,-10.79118 -1.04,-0.38 -2.11184,-0.99882 -3.15184,-1.36882 -1.4,3.06 -2.8,6.12 -4.38,9.1 -0.60397,-0.41502 -1.72563,-0.86234 -2.3486,-1.33435 3.13469,-6.5651 6.4286,-13.86565 9.3786,-20.47565 m 1.53394,3.5591 c -1.12,2.39 -2.02394,4.4509 -3.17394,6.8409 1.6,0.68 3.16,1.51 4.86,1.93 2.92,0.78 5.18,-3.17 3.77,-5.57 -1.53032,-1.48968 -3.1649,-2.18109 -5.45606,-3.2009 z"
       id="path80"
       sodipodi:nodetypes="cccccccccccccccc" />
    <path
       fill="#20376a"
       opacity="1"
       d="m 306.19,372.24 c 0.46,-0.22 1.38,-0.66 1.85,-0.88 3.02,6.78 6.19,13.5 9.26,20.27 -1.01,0.41 -2.02,0.83 -3.02,1.25 -4.27,-3.82 -8.53,-7.67 -12.97,-11.29 1.95,4.9 4.34,9.6 6.5,14.42 -0.92,0.35 -1.84,0.71 -2.75,1.08 -3.04,-6.73 -6.14,-13.43 -9.25,-20.12 0.99,-0.43 1.98,-0.86 2.97,-1.29 4.39,3.75 8.59,7.73 13.12,11.31 -2.08,-4.83 -4.33,-9.58 -6.6,-14.32 z"
       id="path81" />
    <path
       fill="#20376a"
       opacity="1"
       d="m 183.89,380.11 c 1.29,0.37 2.58,0.74 3.87,1.12 -0.32,4.94 -1.19,9.83 -1.29,14.79 2.56,-4.19 4.63,-8.65 6.94,-12.97 1.31,0.3 2.62,0.6 3.94,0.91 -2.04,7.18 -4.26,14.31 -6.3,21.49 -0.64,-0.25 -1.94,-0.75 -2.58,-1 1.38,-4.46 2.96,-8.88 3.84,-13.48 -2.93,4.21 -4.39489,8.46389 -7.09489,12.81389 -0.73856,-0.28522 -1.25789,-0.35989 -1.86922,-0.692 0.05,-4.64 1.34411,-10.30189 1.19411,-14.95189 -1.93,4.53 -2.92,9.38 -4.4,14.06 -0.65,-0.22 -1.94,-0.66 -2.58,-0.88 2.21,-7.04 4.23,-14.14 6.33,-21.21 z"
       id="path82"
       sodipodi:nodetypes="cccccccccccccc" />
    <path
       fill="#20376a"
       opacity="1"
       d="m 286.3,380.47 c 0.24,-0.05 0.71,-0.16 0.94,-0.21 1.22,4.26 2.51,8.49 3.78,12.74 0.71,2.38 1.29,5.01 0.51,7.45 -1.78,3.17 -5.99,4 -9.29,3.21 -2.11,-0.78 -3.04,-3.05 -3.68,-5.02 -1.46,-4.86 -2.81,-9.74 -4.31,-14.58 0.93,-0.32 1.87,-0.62 2.81,-0.92 1.42,4.87 2.78,9.76 4.28,14.61 0.58,1.69 1.19161,3.65846 3.41161,3.42846 2.13,0.33 4.5851,-1.79419 4.22056,-3.47678 -1.61,-5.91 -2.87217,-10.92168 -4.60217,-16.78168 0.48,-0.11 1.45,-0.34 1.93,-0.45 z"
       id="path83"
       sodipodi:nodetypes="ccccccccccccc" />
    <path
       fill="#20376a"
       opacity="1"
       d="m 211.37,387.27 0.47,-0.8 c 0.57,0.12 1.71,0.35 2.28,0.47 1.38,7.66 2.1,15.43 3.35,23.12 -0.75,-0.12 -2.24,-0.35 -2.99,-0.47 -0.22,-2.34 -0.5,-4.68 -0.78,-7 -2.01,-0.3 -4.01,-0.62 -6,-0.95 -0.9,2.22 -1.81,4.45 -2.7,6.68 -0.74,-0.15 -2.23,-0.46 -2.98,-0.62 3.19,-6.77 6.07,-13.7 9.35,-20.43 m 0.09,5.81 c -0.95,2.12 -1.85,4.27 -2.78,6.41 1.59,0.15 3.19,0.32 4.79,0.48 -0.39,-2.85 -0.78,-5.7 -1.26,-8.54 z"
       id="path84" />
    <path
       fill="#20376a"
       opacity="1"
       d="m 229.14,388.56 c 0.69,0 2.05,0 2.74,0 -0.08,6.64 -0.01,13.27 -0.05,19.91 3.59,0.02 7.18,0.01 10.78,-0.02 0.01,0.57 0.05,1.72 0.06,2.29 -4.51,-0.02 -9.02,-0.03 -13.52,0.02 0.06,-7.4 0.07,-14.81 -0.01,-22.2 z"
       id="path85" />
  </g>
  <g
     inkscape:groupmode="layer"
     id="layer1"
     inkscape:label="back"
     style="mix-blend-mode:overlay" />
</svg>
